<svg xmlns="http://www.w3.org/2000/svg" width="300" height="600" viewBox="0 0 300 600" fill="none">
  <rect x="8" y="8" width="284" height="584" rx="16" ry="16" fill="#FFFFFF" stroke="#E5E7EB" stroke-width="2"/>
  <rect x="28" y="40" width="244" height="12" fill="#E5E7EB"/>
  <rect x="28" y="70" width="160" height="10" fill="#F3F4F6"/>
  <rect x="28" y="95" width="220" height="10" fill="#F3F4F6"/>
  <rect x="28" y="120" width="200" height="10" fill="#F3F4F6"/>
  <rect x="28" y="160" width="244" height="1" fill="#E5E7EB"/>
  <rect x="28" y="180" width="220" height="10" fill="#F3F4F6"/>
  <rect x="28" y="205" width="180" height="10" fill="#F3F4F6"/>
  <rect x="28" y="230" width="200" height="10" fill="#F3F4F6"/>
  <rect x="28" y="270" width="244" height="1" fill="#E5E7EB"/>
  <rect x="28" y="290" width="160" height="10" fill="#F3F4F6"/>
  <rect x="28" y="315" width="220" height="10" fill="#F3F4F6"/>
  <rect x="28" y="340" width="180" height="10" fill="#F3F4F6"/>
  <rect x="28" y="380" width="244" height="1" fill="#E5E7EB"/>
  <rect x="28" y="400" width="200" height="10" fill="#F3F4F6"/>
  <rect x="28" y="425" width="160" height="10" fill="#F3F4F6"/>
  <rect x="28" y="460" width="244" height="1" fill="#E5E7EB"/>
  <rect x="28" y="485" width="220" height="12" fill="#E5E7EB"/>
</svg>

